<svg xmlns="http://www.w3.org/2000/svg" width="114" height="27" fill="none"><path fill="#329256" d="m12.5 4.99-9.485 8.365c-.07.064-.16.093-.237.146v8.027c0 .384.31.694.694.694H9.95l-1.616-3.16 4.519-2.778-2.611-5.174 6.426 5.936-4.52 2.778 1.734 2.398h7.647c.383 0 .694-.31.694-.694v-8.025c-.074-.05-.161-.08-.228-.14L12.5 4.99Zm12.27 5.265-2.548-2.25V2.084a.694.694 0 0 0-.694-.694H18.75a.694.694 0 0 0-.695.694v2.244L13.661.447A1.735 1.735 0 0 0 12.5 0c-.415 0-.83.148-1.159.446l-11.11 9.81a.695.695 0 0 0-.053.98l.929 1.034a.695.695 0 0 0 .98.053l9.954-8.78a.695.695 0 0 1 .919 0l9.953 8.779a.695.695 0 0 0 .98-.052l.93-1.034a.694.694 0 0 0-.053-.98Z"/><path fill="#117046" d="M26.761 22V7.455h5.086c1.013 0 1.849.175 2.507.525.658.346 1.148.812 1.47 1.4a3.94 3.94 0 0 1 .483 1.938c0 .625-.111 1.141-.334 1.549a2.591 2.591 0 0 1-.867.965 3.946 3.946 0 0 1-1.157.526v.142c.445.028.892.185 1.342.469.45.284.826.691 1.13 1.221.303.53.454 1.18.454 1.946 0 .73-.166 1.385-.497 1.968-.332.582-.855 1.044-1.57 1.385-.715.34-1.645.511-2.791.511h-5.256Zm1.762-1.562h3.494c1.15 0 1.967-.223 2.45-.668.488-.45.732-.994.732-1.634 0-.492-.126-.947-.377-1.363a2.724 2.724 0 0 0-1.072-1.009c-.464-.255-1.013-.383-1.648-.383h-3.58v5.057Zm0-6.591h3.267c.53 0 1.008-.105 1.434-.313a2.51 2.51 0 0 0 1.023-.88c.256-.38.384-.825.384-1.336 0-.639-.223-1.181-.668-1.626-.445-.45-1.15-.675-2.116-.675h-3.324v4.83Zm15.45 8.38c-.984 0-1.848-.234-2.592-.703-.738-.469-1.316-1.124-1.733-1.967-.412-.843-.617-1.828-.617-2.955 0-1.136.206-2.128.617-2.976.417-.847.995-1.505 1.733-1.974.744-.469 1.608-.703 2.593-.703.985 0 1.846.234 2.585.703.743.469 1.321 1.127 1.733 1.974.417.848.625 1.84.625 2.976 0 1.127-.208 2.112-.625 2.955-.412.843-.99 1.498-1.733 1.967-.739.469-1.6.703-2.585.703Zm0-1.505c.749 0 1.364-.192 1.847-.576.483-.383.84-.887 1.073-1.512a5.792 5.792 0 0 0 .348-2.032 5.85 5.85 0 0 0-.348-2.038 3.433 3.433 0 0 0-1.073-1.527c-.483-.388-1.098-.583-1.846-.583s-1.364.195-1.847.583c-.483.388-.84.897-1.072 1.527a5.851 5.851 0 0 0-.348 2.038c0 .73.116 1.407.348 2.032.232.625.59 1.129 1.072 1.512.483.384 1.099.576 1.847.576Zm9.065-2.7-.028-2.073h.34l4.773-4.858h2.074l-5.085 5.142h-.142l-1.932 1.79ZM51.476 22V7.455h1.676V22h-1.677Zm6.931 0-4.261-5.398 1.193-1.165L60.538 22h-2.13Zm5.624-6.562V22h-1.677V7.455h1.677v5.34h.142a3.085 3.085 0 0 1 1.15-1.342c.516-.336 1.203-.504 2.06-.504.743 0 1.394.149 1.953.447.559.294.992.746 1.3 1.357.312.606.468 1.378.468 2.315V22h-1.676v-6.818c0-.867-.225-1.537-.674-2.01-.446-.478-1.063-.718-1.854-.718-.55 0-1.042.116-1.477.349-.431.232-.772.57-1.023 1.015-.246.445-.37.985-.37 1.62Zm17.015 2.102v-6.45h1.676V22h-1.676v-1.847h-.114a3.58 3.58 0 0 1-1.193 1.414c-.54.383-1.222.575-2.046.575-.681 0-1.287-.15-1.818-.447-.53-.303-.947-.758-1.25-1.364-.303-.61-.454-1.38-.454-2.308V11.09h1.676v6.818c0 .796.223 1.43.668 1.904.45.473 1.022.71 1.718.71.417 0 .84-.107 1.272-.32.435-.213.8-.54 1.093-.98.299-.44.448-1.001.448-1.683Zm12.473-4.006-1.506.426a2.798 2.798 0 0 0-.419-.731 2.035 2.035 0 0 0-.738-.597c-.313-.156-.713-.234-1.2-.234-.668 0-1.224.154-1.67.461-.44.303-.66.69-.66 1.158 0 .417.152.746.455.987.303.242.776.443 1.42.604l1.62.398c.975.236 1.701.599 2.18 1.086.478.483.717 1.106.717 1.868a2.77 2.77 0 0 1-.54 1.676c-.355.493-.852.881-1.491 1.165-.64.284-1.383.426-2.23.426-1.113 0-2.034-.241-2.763-.724-.73-.483-1.19-1.189-1.385-2.117l1.59-.397c.152.587.439 1.027.86 1.32.426.294.983.441 1.67.441.78 0 1.4-.166 1.86-.497.464-.336.696-.739.696-1.207 0-.38-.132-.697-.398-.952-.265-.26-.672-.455-1.221-.583l-1.818-.426c-1-.236-1.733-.604-2.202-1.1-.464-.502-.696-1.13-.696-1.883a2.7 2.7 0 0 1 .518-1.633c.35-.474.827-.845 1.428-1.115.606-.27 1.292-.405 2.06-.405 1.08 0 1.927.237 2.542.71a3.829 3.829 0 0 1 1.321 1.875Zm7.296 8.693c-1.051 0-1.958-.232-2.72-.696a4.67 4.67 0 0 1-1.754-1.96c-.408-.843-.611-1.823-.611-2.94 0-1.118.203-2.103.61-2.955.412-.857.985-1.524 1.72-2.003.738-.483 1.6-.724 2.585-.724a5.17 5.17 0 0 1 1.683.284c.554.19 1.058.497 1.513.923.454.422.816.98 1.086 1.676.27.696.405 1.553.405 2.571v.71h-8.41v-1.448h6.705c0-.616-.123-1.165-.369-1.648a2.778 2.778 0 0 0-1.037-1.143c-.445-.28-.97-.42-1.576-.42-.668 0-1.246.166-1.733.498a3.27 3.27 0 0 0-1.116 1.278 3.756 3.756 0 0 0-.39 1.69v.966c0 .824.142 1.523.426 2.096a3.074 3.074 0 0 0 1.2 1.3c.512.293 1.106.44 1.783.44.44 0 .838-.062 1.193-.185.36-.128.67-.317.931-.568.26-.256.461-.573.603-.952l1.62.455a3.593 3.593 0 0 1-.86 1.448 4.182 4.182 0 0 1-1.491.966c-.592.228-1.257.341-1.996.341Zm11.811-11.136v1.42h-5.653v-1.42h5.653Zm-4.006-2.614h1.677v10.398c0 .474.068.829.205 1.065.143.232.322.389.54.47.223.075.457.113.703.113.185 0 .337-.01.455-.029l.284-.056.341 1.505a3.413 3.413 0 0 1-.476.128 3.505 3.505 0 0 1-.774.071 3.37 3.37 0 0 1-1.392-.305 2.761 2.761 0 0 1-1.122-.93c-.294-.417-.441-.943-.441-1.578V8.478Z"/></svg>